%TF.GenerationSoftware,KiCad,Pcbnew,(5.1.9)-1*%
%TF.CreationDate,2021-07-06T13:13:09+03:00*%
%TF.ProjectId,plumber,706c756d-6265-4722-9e6b-696361645f70,rev?*%
%TF.SameCoordinates,Original*%
%TF.FileFunction,Soldermask,Bot*%
%TF.FilePolarity,Negative*%
%FSLAX46Y46*%
G04 Gerber Fmt 4.6, Leading zero omitted, Abs format (unit mm)*
G04 Created by KiCad (PCBNEW (5.1.9)-1) date 2021-07-06 13:13:09*
%MOMM*%
%LPD*%
G01*
G04 APERTURE LIST*
%ADD10O,1.900000X1.200000*%
%ADD11C,1.450000*%
%ADD12R,3.500000X3.500000*%
%ADD13C,1.600000*%
%ADD14R,1.600000X1.600000*%
%ADD15C,1.950000*%
%ADD16C,2.600000*%
%ADD17R,2.600000X2.600000*%
%ADD18O,1.700000X1.700000*%
%ADD19R,1.700000X1.700000*%
%ADD20C,7.400000*%
G04 APERTURE END LIST*
D10*
%TO.C,J13*%
X120500000Y-69900000D03*
X120500000Y-62900000D03*
D11*
X123200000Y-68900000D03*
X123200000Y-63900000D03*
%TD*%
%TO.C,J12*%
G36*
G01*
X127050000Y-72275000D02*
X127050000Y-70525000D01*
G75*
G02*
X127925000Y-69650000I875000J0D01*
G01*
X129675000Y-69650000D01*
G75*
G02*
X130550000Y-70525000I0J-875000D01*
G01*
X130550000Y-72275000D01*
G75*
G02*
X129675000Y-73150000I-875000J0D01*
G01*
X127925000Y-73150000D01*
G75*
G02*
X127050000Y-72275000I0J875000D01*
G01*
G37*
G36*
G01*
X124300000Y-67700000D02*
X124300000Y-65700000D01*
G75*
G02*
X125050000Y-64950000I750000J0D01*
G01*
X126550000Y-64950000D01*
G75*
G02*
X127300000Y-65700000I0J-750000D01*
G01*
X127300000Y-67700000D01*
G75*
G02*
X126550000Y-68450000I-750000J0D01*
G01*
X125050000Y-68450000D01*
G75*
G02*
X124300000Y-67700000I0J750000D01*
G01*
G37*
D12*
X131800000Y-66700000D03*
%TD*%
D13*
%TO.C,C4*%
X133300000Y-110200000D03*
D14*
X133300000Y-113700000D03*
%TD*%
D13*
%TO.C,C3*%
X122000000Y-78100000D03*
D14*
X125500000Y-78100000D03*
%TD*%
D13*
%TO.C,C2*%
X134200000Y-78200000D03*
D14*
X130700000Y-78200000D03*
%TD*%
D15*
%TO.C,K4*%
X152475000Y-74885000D03*
X152475000Y-90125000D03*
X160075000Y-77425000D03*
X160075000Y-90125000D03*
%TD*%
%TO.C,K3*%
X139475000Y-74860000D03*
X139475000Y-90100000D03*
X147075000Y-77400000D03*
X147075000Y-90100000D03*
%TD*%
%TO.C,K2*%
X178500000Y-74885000D03*
X178500000Y-90125000D03*
X186100000Y-77425000D03*
X186100000Y-90125000D03*
%TD*%
%TO.C,K1*%
X165475000Y-74885000D03*
X165475000Y-90125000D03*
X173075000Y-77425000D03*
X173075000Y-90125000D03*
%TD*%
D16*
%TO.C,J11*%
X179800000Y-66500000D03*
D17*
X184800000Y-66500000D03*
%TD*%
D16*
%TO.C,J10*%
X140775000Y-66500000D03*
D17*
X145775000Y-66500000D03*
%TD*%
D18*
%TO.C,J9*%
X147830000Y-95000000D03*
X145290000Y-95000000D03*
D19*
X142750000Y-95000000D03*
%TD*%
D18*
%TO.C,J4*%
X186855000Y-95000000D03*
X184315000Y-95000000D03*
D19*
X181775000Y-95000000D03*
%TD*%
D18*
%TO.C,J2*%
X173830000Y-95000000D03*
X171290000Y-95000000D03*
D19*
X168750000Y-95000000D03*
%TD*%
D18*
%TO.C,J8*%
X141500000Y-109420000D03*
X141500000Y-111960000D03*
D19*
X141500000Y-114500000D03*
%TD*%
D18*
%TO.C,J6*%
X160830000Y-95000000D03*
X158290000Y-95000000D03*
D19*
X155750000Y-95000000D03*
%TD*%
D16*
%TO.C,J5*%
X153783333Y-66500000D03*
D17*
X158783333Y-66500000D03*
%TD*%
D18*
%TO.C,J7*%
X153000000Y-106960000D03*
X153000000Y-109500000D03*
X153000000Y-112040000D03*
D19*
X153000000Y-114580000D03*
%TD*%
D16*
%TO.C,J1*%
X166791666Y-66500000D03*
D17*
X171791666Y-66500000D03*
%TD*%
D20*
%TO.C,H2*%
X184000000Y-104000000D03*
%TD*%
%TO.C,H1*%
X132500000Y-100000000D03*
%TD*%
M02*
