M48
; DRILL file {KiCad (5.1.9)-1} date 07/06/21 13:13:10
; FORMAT={-:-/ absolute / inch / decimal}
; #@! TF.CreationDate,2021-07-06T13:13:10+03:00
; #@! TF.GenerationSoftware,Kicad,Pcbnew,(5.1.9)-1
FMAT,2
INCH
T1C0.0157
T2C0.0236
T3C0.0315
T4C0.0335
T5C0.0394
T6C0.0512
T7C0.1457
%
G90
G05
T1
X4.7244Y-4.3307
X4.8228Y-4.3307
X5.0197Y-4.3307
X5.4134Y-4.3307
X5.5118Y-4.0354
X5.5118Y-4.1339
X5.6102Y-3.937
X5.6102Y-4.1339
X5.7087Y-3.937
X5.8071Y-3.937
X5.9055Y-3.937
X6.0039Y-3.937
X6.3976Y-4.5276
X6.4961Y-4.3307
X6.4961Y-4.5276
X6.5945Y-4.0354
X6.5945Y-4.1339
X6.5945Y-4.3307
X6.5945Y-4.5276
X6.6929Y-4.0354
X6.6929Y-4.1339
X6.6929Y-4.5276
X6.8898Y-3.937
X7.0236Y-4.2323
X7.0866Y-4.2323
X7.2835Y-4.5276
X7.3819Y-4.5276
T3
X4.8031Y-3.0748
X4.9409Y-3.0748
X5.1457Y-3.0787
X5.248Y-4.3386
X5.248Y-4.4764
X5.2835Y-3.0787
T4
X4.8504Y-2.5157
X4.8504Y-2.7126
T5
X5.5709Y-4.3079
X5.5709Y-4.4079
X5.5709Y-4.5079
X5.6201Y-3.7402
X5.7201Y-3.7402
X5.8201Y-3.7402
X6.0236Y-4.211
X6.0236Y-4.311
X6.0236Y-4.411
X6.0236Y-4.511
X6.1319Y-3.7402
X6.2319Y-3.7402
X6.3319Y-3.7402
X6.6437Y-3.7402
X6.7437Y-3.7402
X6.8437Y-3.7402
X7.1565Y-3.7402
X7.2565Y-3.7402
X7.3565Y-3.7402
T6
X5.4911Y-2.9472
X5.4911Y-3.5472
X5.5423Y-2.6181
X5.7392Y-2.6181
X5.7904Y-3.0472
X5.7904Y-3.5472
X6.003Y-2.9482
X6.003Y-3.5482
X6.0545Y-2.6181
X6.2513Y-2.6181
X6.3022Y-3.0482
X6.3022Y-3.5482
X6.5148Y-2.9482
X6.5148Y-3.5482
X6.5666Y-2.6181
X6.7635Y-2.6181
X6.814Y-3.0482
X6.814Y-3.5482
X7.0276Y-2.9482
X7.0276Y-3.5482
X7.0787Y-2.6181
X7.2756Y-2.6181
X7.3268Y-3.0482
X7.3268Y-3.5482
T7
X5.2165Y-3.937
X7.2441Y-4.0945
T2
G00X4.7303Y-2.4764
M15
G01X4.7579Y-2.4764
M16
G05
G00X4.7579Y-2.752
M15
G01X4.7303Y-2.752
M16
G05
T5
G00X4.9528Y-2.5866
M15
G01X4.9528Y-2.6654
M16
G05
G00X5.0315Y-2.811
M15
G01X5.1102Y-2.811
M16
G05
G00X5.189Y-2.5866
M15
G01X5.189Y-2.6654
M16
G05
T0
M30
