%TF.GenerationSoftware,KiCad,Pcbnew,(5.1.9)-1*%
%TF.CreationDate,2021-07-06T13:13:09+03:00*%
%TF.ProjectId,plumber,706c756d-6265-4722-9e6b-696361645f70,rev?*%
%TF.SameCoordinates,Original*%
%TF.FileFunction,Soldermask,Top*%
%TF.FilePolarity,Negative*%
%FSLAX46Y46*%
G04 Gerber Fmt 4.6, Leading zero omitted, Abs format (unit mm)*
G04 Created by KiCad (PCBNEW (5.1.9)-1) date 2021-07-06 13:13:09*
%MOMM*%
%LPD*%
G01*
G04 APERTURE LIST*
%ADD10R,1.500000X2.000000*%
%ADD11R,3.800000X2.000000*%
%ADD12R,1.900000X1.200000*%
%ADD13O,1.900000X1.200000*%
%ADD14R,1.900000X1.500000*%
%ADD15C,1.450000*%
%ADD16R,1.350000X0.400000*%
%ADD17R,3.500000X3.500000*%
%ADD18C,1.600000*%
%ADD19R,1.600000X1.600000*%
%ADD20R,0.900000X0.800000*%
%ADD21C,1.950000*%
%ADD22C,2.600000*%
%ADD23R,2.600000X2.600000*%
%ADD24O,1.700000X1.700000*%
%ADD25R,1.700000X1.700000*%
%ADD26R,1.600000X2.000000*%
%ADD27R,2.000000X1.600000*%
%ADD28R,2.500000X1.000000*%
%ADD29R,1.000000X1.800000*%
%ADD30C,7.400000*%
G04 APERTURE END LIST*
D10*
%TO.C,U2*%
X125400000Y-90300000D03*
X130000000Y-90300000D03*
X127700000Y-90300000D03*
D11*
X127700000Y-84000000D03*
%TD*%
%TO.C,R18*%
G36*
G01*
X123975000Y-72162500D02*
X123975000Y-72637500D01*
G75*
G02*
X123737500Y-72875000I-237500J0D01*
G01*
X123237500Y-72875000D01*
G75*
G02*
X123000000Y-72637500I0J237500D01*
G01*
X123000000Y-72162500D01*
G75*
G02*
X123237500Y-71925000I237500J0D01*
G01*
X123737500Y-71925000D01*
G75*
G02*
X123975000Y-72162500I0J-237500D01*
G01*
G37*
G36*
G01*
X125800000Y-72162500D02*
X125800000Y-72637500D01*
G75*
G02*
X125562500Y-72875000I-237500J0D01*
G01*
X125062500Y-72875000D01*
G75*
G02*
X124825000Y-72637500I0J237500D01*
G01*
X124825000Y-72162500D01*
G75*
G02*
X125062500Y-71925000I237500J0D01*
G01*
X125562500Y-71925000D01*
G75*
G02*
X125800000Y-72162500I0J-237500D01*
G01*
G37*
%TD*%
D12*
%TO.C,J13*%
X120500000Y-63500000D03*
X120500000Y-69300000D03*
D13*
X120500000Y-69900000D03*
X120500000Y-62900000D03*
D14*
X120500000Y-65400000D03*
D15*
X123200000Y-68900000D03*
D16*
X123200000Y-66400000D03*
X123200000Y-67050000D03*
X123200000Y-67700000D03*
X123200000Y-65100000D03*
X123200000Y-65750000D03*
D15*
X123200000Y-63900000D03*
D14*
X120500000Y-67400000D03*
%TD*%
%TO.C,J12*%
G36*
G01*
X127050000Y-72275000D02*
X127050000Y-70525000D01*
G75*
G02*
X127925000Y-69650000I875000J0D01*
G01*
X129675000Y-69650000D01*
G75*
G02*
X130550000Y-70525000I0J-875000D01*
G01*
X130550000Y-72275000D01*
G75*
G02*
X129675000Y-73150000I-875000J0D01*
G01*
X127925000Y-73150000D01*
G75*
G02*
X127050000Y-72275000I0J875000D01*
G01*
G37*
G36*
G01*
X124300000Y-67700000D02*
X124300000Y-65700000D01*
G75*
G02*
X125050000Y-64950000I750000J0D01*
G01*
X126550000Y-64950000D01*
G75*
G02*
X127300000Y-65700000I0J-750000D01*
G01*
X127300000Y-67700000D01*
G75*
G02*
X126550000Y-68450000I-750000J0D01*
G01*
X125050000Y-68450000D01*
G75*
G02*
X124300000Y-67700000I0J750000D01*
G01*
G37*
D17*
X131800000Y-66700000D03*
%TD*%
%TO.C,C6*%
G36*
G01*
X129337500Y-106937500D02*
X128862500Y-106937500D01*
G75*
G02*
X128625000Y-106700000I0J237500D01*
G01*
X128625000Y-106100000D01*
G75*
G02*
X128862500Y-105862500I237500J0D01*
G01*
X129337500Y-105862500D01*
G75*
G02*
X129575000Y-106100000I0J-237500D01*
G01*
X129575000Y-106700000D01*
G75*
G02*
X129337500Y-106937500I-237500J0D01*
G01*
G37*
G36*
G01*
X129337500Y-108662500D02*
X128862500Y-108662500D01*
G75*
G02*
X128625000Y-108425000I0J237500D01*
G01*
X128625000Y-107825000D01*
G75*
G02*
X128862500Y-107587500I237500J0D01*
G01*
X129337500Y-107587500D01*
G75*
G02*
X129575000Y-107825000I0J-237500D01*
G01*
X129575000Y-108425000D01*
G75*
G02*
X129337500Y-108662500I-237500J0D01*
G01*
G37*
%TD*%
%TO.C,C5*%
G36*
G01*
X122862500Y-90262500D02*
X123337500Y-90262500D01*
G75*
G02*
X123575000Y-90500000I0J-237500D01*
G01*
X123575000Y-91100000D01*
G75*
G02*
X123337500Y-91337500I-237500J0D01*
G01*
X122862500Y-91337500D01*
G75*
G02*
X122625000Y-91100000I0J237500D01*
G01*
X122625000Y-90500000D01*
G75*
G02*
X122862500Y-90262500I237500J0D01*
G01*
G37*
G36*
G01*
X122862500Y-88537500D02*
X123337500Y-88537500D01*
G75*
G02*
X123575000Y-88775000I0J-237500D01*
G01*
X123575000Y-89375000D01*
G75*
G02*
X123337500Y-89612500I-237500J0D01*
G01*
X122862500Y-89612500D01*
G75*
G02*
X122625000Y-89375000I0J237500D01*
G01*
X122625000Y-88775000D01*
G75*
G02*
X122862500Y-88537500I237500J0D01*
G01*
G37*
%TD*%
D18*
%TO.C,C4*%
X133300000Y-110200000D03*
D19*
X133300000Y-113700000D03*
%TD*%
D18*
%TO.C,C3*%
X122000000Y-78100000D03*
D19*
X125500000Y-78100000D03*
%TD*%
D18*
%TO.C,C2*%
X134200000Y-78200000D03*
D19*
X130700000Y-78200000D03*
%TD*%
D10*
%TO.C,U3*%
X126800000Y-106850000D03*
X122200000Y-106850000D03*
X124500000Y-106850000D03*
D11*
X124500000Y-113150000D03*
%TD*%
%TO.C,R16*%
G36*
G01*
X152425000Y-98237500D02*
X152425000Y-97762500D01*
G75*
G02*
X152662500Y-97525000I237500J0D01*
G01*
X153162500Y-97525000D01*
G75*
G02*
X153400000Y-97762500I0J-237500D01*
G01*
X153400000Y-98237500D01*
G75*
G02*
X153162500Y-98475000I-237500J0D01*
G01*
X152662500Y-98475000D01*
G75*
G02*
X152425000Y-98237500I0J237500D01*
G01*
G37*
G36*
G01*
X150600000Y-98237500D02*
X150600000Y-97762500D01*
G75*
G02*
X150837500Y-97525000I237500J0D01*
G01*
X151337500Y-97525000D01*
G75*
G02*
X151575000Y-97762500I0J-237500D01*
G01*
X151575000Y-98237500D01*
G75*
G02*
X151337500Y-98475000I-237500J0D01*
G01*
X150837500Y-98475000D01*
G75*
G02*
X150600000Y-98237500I0J237500D01*
G01*
G37*
%TD*%
%TO.C,R15*%
G36*
G01*
X139425000Y-98237500D02*
X139425000Y-97762500D01*
G75*
G02*
X139662500Y-97525000I237500J0D01*
G01*
X140162500Y-97525000D01*
G75*
G02*
X140400000Y-97762500I0J-237500D01*
G01*
X140400000Y-98237500D01*
G75*
G02*
X140162500Y-98475000I-237500J0D01*
G01*
X139662500Y-98475000D01*
G75*
G02*
X139425000Y-98237500I0J237500D01*
G01*
G37*
G36*
G01*
X137600000Y-98237500D02*
X137600000Y-97762500D01*
G75*
G02*
X137837500Y-97525000I237500J0D01*
G01*
X138337500Y-97525000D01*
G75*
G02*
X138575000Y-97762500I0J-237500D01*
G01*
X138575000Y-98237500D01*
G75*
G02*
X138337500Y-98475000I-237500J0D01*
G01*
X137837500Y-98475000D01*
G75*
G02*
X137600000Y-98237500I0J237500D01*
G01*
G37*
%TD*%
%TO.C,R14*%
G36*
G01*
X147512500Y-98237500D02*
X147512500Y-97762500D01*
G75*
G02*
X147750000Y-97525000I237500J0D01*
G01*
X148250000Y-97525000D01*
G75*
G02*
X148487500Y-97762500I0J-237500D01*
G01*
X148487500Y-98237500D01*
G75*
G02*
X148250000Y-98475000I-237500J0D01*
G01*
X147750000Y-98475000D01*
G75*
G02*
X147512500Y-98237500I0J237500D01*
G01*
G37*
G36*
G01*
X145687500Y-98237500D02*
X145687500Y-97762500D01*
G75*
G02*
X145925000Y-97525000I237500J0D01*
G01*
X146425000Y-97525000D01*
G75*
G02*
X146662500Y-97762500I0J-237500D01*
G01*
X146662500Y-98237500D01*
G75*
G02*
X146425000Y-98475000I-237500J0D01*
G01*
X145925000Y-98475000D01*
G75*
G02*
X145687500Y-98237500I0J237500D01*
G01*
G37*
%TD*%
%TO.C,R13*%
G36*
G01*
X160512500Y-98237500D02*
X160512500Y-97762500D01*
G75*
G02*
X160750000Y-97525000I237500J0D01*
G01*
X161250000Y-97525000D01*
G75*
G02*
X161487500Y-97762500I0J-237500D01*
G01*
X161487500Y-98237500D01*
G75*
G02*
X161250000Y-98475000I-237500J0D01*
G01*
X160750000Y-98475000D01*
G75*
G02*
X160512500Y-98237500I0J237500D01*
G01*
G37*
G36*
G01*
X158687500Y-98237500D02*
X158687500Y-97762500D01*
G75*
G02*
X158925000Y-97525000I237500J0D01*
G01*
X159425000Y-97525000D01*
G75*
G02*
X159662500Y-97762500I0J-237500D01*
G01*
X159662500Y-98237500D01*
G75*
G02*
X159425000Y-98475000I-237500J0D01*
G01*
X158925000Y-98475000D01*
G75*
G02*
X158687500Y-98237500I0J237500D01*
G01*
G37*
%TD*%
%TO.C,R11*%
G36*
G01*
X143425000Y-98237500D02*
X143425000Y-97762500D01*
G75*
G02*
X143662500Y-97525000I237500J0D01*
G01*
X144162500Y-97525000D01*
G75*
G02*
X144400000Y-97762500I0J-237500D01*
G01*
X144400000Y-98237500D01*
G75*
G02*
X144162500Y-98475000I-237500J0D01*
G01*
X143662500Y-98475000D01*
G75*
G02*
X143425000Y-98237500I0J237500D01*
G01*
G37*
G36*
G01*
X141600000Y-98237500D02*
X141600000Y-97762500D01*
G75*
G02*
X141837500Y-97525000I237500J0D01*
G01*
X142337500Y-97525000D01*
G75*
G02*
X142575000Y-97762500I0J-237500D01*
G01*
X142575000Y-98237500D01*
G75*
G02*
X142337500Y-98475000I-237500J0D01*
G01*
X141837500Y-98475000D01*
G75*
G02*
X141600000Y-98237500I0J237500D01*
G01*
G37*
%TD*%
%TO.C,R10*%
G36*
G01*
X156425000Y-98237500D02*
X156425000Y-97762500D01*
G75*
G02*
X156662500Y-97525000I237500J0D01*
G01*
X157162500Y-97525000D01*
G75*
G02*
X157400000Y-97762500I0J-237500D01*
G01*
X157400000Y-98237500D01*
G75*
G02*
X157162500Y-98475000I-237500J0D01*
G01*
X156662500Y-98475000D01*
G75*
G02*
X156425000Y-98237500I0J237500D01*
G01*
G37*
G36*
G01*
X154600000Y-98237500D02*
X154600000Y-97762500D01*
G75*
G02*
X154837500Y-97525000I237500J0D01*
G01*
X155337500Y-97525000D01*
G75*
G02*
X155575000Y-97762500I0J-237500D01*
G01*
X155575000Y-98237500D01*
G75*
G02*
X155337500Y-98475000I-237500J0D01*
G01*
X154837500Y-98475000D01*
G75*
G02*
X154600000Y-98237500I0J237500D01*
G01*
G37*
%TD*%
%TO.C,R9*%
G36*
G01*
X178425000Y-98237500D02*
X178425000Y-97762500D01*
G75*
G02*
X178662500Y-97525000I237500J0D01*
G01*
X179162500Y-97525000D01*
G75*
G02*
X179400000Y-97762500I0J-237500D01*
G01*
X179400000Y-98237500D01*
G75*
G02*
X179162500Y-98475000I-237500J0D01*
G01*
X178662500Y-98475000D01*
G75*
G02*
X178425000Y-98237500I0J237500D01*
G01*
G37*
G36*
G01*
X176600000Y-98237500D02*
X176600000Y-97762500D01*
G75*
G02*
X176837500Y-97525000I237500J0D01*
G01*
X177337500Y-97525000D01*
G75*
G02*
X177575000Y-97762500I0J-237500D01*
G01*
X177575000Y-98237500D01*
G75*
G02*
X177337500Y-98475000I-237500J0D01*
G01*
X176837500Y-98475000D01*
G75*
G02*
X176600000Y-98237500I0J237500D01*
G01*
G37*
%TD*%
%TO.C,R8*%
G36*
G01*
X165425000Y-98237500D02*
X165425000Y-97762500D01*
G75*
G02*
X165662500Y-97525000I237500J0D01*
G01*
X166162500Y-97525000D01*
G75*
G02*
X166400000Y-97762500I0J-237500D01*
G01*
X166400000Y-98237500D01*
G75*
G02*
X166162500Y-98475000I-237500J0D01*
G01*
X165662500Y-98475000D01*
G75*
G02*
X165425000Y-98237500I0J237500D01*
G01*
G37*
G36*
G01*
X163600000Y-98237500D02*
X163600000Y-97762500D01*
G75*
G02*
X163837500Y-97525000I237500J0D01*
G01*
X164337500Y-97525000D01*
G75*
G02*
X164575000Y-97762500I0J-237500D01*
G01*
X164575000Y-98237500D01*
G75*
G02*
X164337500Y-98475000I-237500J0D01*
G01*
X163837500Y-98475000D01*
G75*
G02*
X163600000Y-98237500I0J237500D01*
G01*
G37*
%TD*%
%TO.C,R7*%
G36*
G01*
X186512500Y-98237500D02*
X186512500Y-97762500D01*
G75*
G02*
X186750000Y-97525000I237500J0D01*
G01*
X187250000Y-97525000D01*
G75*
G02*
X187487500Y-97762500I0J-237500D01*
G01*
X187487500Y-98237500D01*
G75*
G02*
X187250000Y-98475000I-237500J0D01*
G01*
X186750000Y-98475000D01*
G75*
G02*
X186512500Y-98237500I0J237500D01*
G01*
G37*
G36*
G01*
X184687500Y-98237500D02*
X184687500Y-97762500D01*
G75*
G02*
X184925000Y-97525000I237500J0D01*
G01*
X185425000Y-97525000D01*
G75*
G02*
X185662500Y-97762500I0J-237500D01*
G01*
X185662500Y-98237500D01*
G75*
G02*
X185425000Y-98475000I-237500J0D01*
G01*
X184925000Y-98475000D01*
G75*
G02*
X184687500Y-98237500I0J237500D01*
G01*
G37*
%TD*%
%TO.C,R4*%
G36*
G01*
X173425000Y-98237500D02*
X173425000Y-97762500D01*
G75*
G02*
X173662500Y-97525000I237500J0D01*
G01*
X174162500Y-97525000D01*
G75*
G02*
X174400000Y-97762500I0J-237500D01*
G01*
X174400000Y-98237500D01*
G75*
G02*
X174162500Y-98475000I-237500J0D01*
G01*
X173662500Y-98475000D01*
G75*
G02*
X173425000Y-98237500I0J237500D01*
G01*
G37*
G36*
G01*
X171600000Y-98237500D02*
X171600000Y-97762500D01*
G75*
G02*
X171837500Y-97525000I237500J0D01*
G01*
X172337500Y-97525000D01*
G75*
G02*
X172575000Y-97762500I0J-237500D01*
G01*
X172575000Y-98237500D01*
G75*
G02*
X172337500Y-98475000I-237500J0D01*
G01*
X171837500Y-98475000D01*
G75*
G02*
X171600000Y-98237500I0J237500D01*
G01*
G37*
%TD*%
%TO.C,R3*%
G36*
G01*
X182512500Y-98237500D02*
X182512500Y-97762500D01*
G75*
G02*
X182750000Y-97525000I237500J0D01*
G01*
X183250000Y-97525000D01*
G75*
G02*
X183487500Y-97762500I0J-237500D01*
G01*
X183487500Y-98237500D01*
G75*
G02*
X183250000Y-98475000I-237500J0D01*
G01*
X182750000Y-98475000D01*
G75*
G02*
X182512500Y-98237500I0J237500D01*
G01*
G37*
G36*
G01*
X180687500Y-98237500D02*
X180687500Y-97762500D01*
G75*
G02*
X180925000Y-97525000I237500J0D01*
G01*
X181425000Y-97525000D01*
G75*
G02*
X181662500Y-97762500I0J-237500D01*
G01*
X181662500Y-98237500D01*
G75*
G02*
X181425000Y-98475000I-237500J0D01*
G01*
X180925000Y-98475000D01*
G75*
G02*
X180687500Y-98237500I0J237500D01*
G01*
G37*
%TD*%
%TO.C,R2*%
G36*
G01*
X153425000Y-104237500D02*
X153425000Y-103762500D01*
G75*
G02*
X153662500Y-103525000I237500J0D01*
G01*
X154162500Y-103525000D01*
G75*
G02*
X154400000Y-103762500I0J-237500D01*
G01*
X154400000Y-104237500D01*
G75*
G02*
X154162500Y-104475000I-237500J0D01*
G01*
X153662500Y-104475000D01*
G75*
G02*
X153425000Y-104237500I0J237500D01*
G01*
G37*
G36*
G01*
X151600000Y-104237500D02*
X151600000Y-103762500D01*
G75*
G02*
X151837500Y-103525000I237500J0D01*
G01*
X152337500Y-103525000D01*
G75*
G02*
X152575000Y-103762500I0J-237500D01*
G01*
X152575000Y-104237500D01*
G75*
G02*
X152337500Y-104475000I-237500J0D01*
G01*
X151837500Y-104475000D01*
G75*
G02*
X151600000Y-104237500I0J237500D01*
G01*
G37*
%TD*%
%TO.C,R1*%
G36*
G01*
X169425000Y-98237500D02*
X169425000Y-97762500D01*
G75*
G02*
X169662500Y-97525000I237500J0D01*
G01*
X170162500Y-97525000D01*
G75*
G02*
X170400000Y-97762500I0J-237500D01*
G01*
X170400000Y-98237500D01*
G75*
G02*
X170162500Y-98475000I-237500J0D01*
G01*
X169662500Y-98475000D01*
G75*
G02*
X169425000Y-98237500I0J237500D01*
G01*
G37*
G36*
G01*
X167600000Y-98237500D02*
X167600000Y-97762500D01*
G75*
G02*
X167837500Y-97525000I237500J0D01*
G01*
X168337500Y-97525000D01*
G75*
G02*
X168575000Y-97762500I0J-237500D01*
G01*
X168575000Y-98237500D01*
G75*
G02*
X168337500Y-98475000I-237500J0D01*
G01*
X167837500Y-98475000D01*
G75*
G02*
X167600000Y-98237500I0J237500D01*
G01*
G37*
%TD*%
D20*
%TO.C,Q4*%
X151000000Y-95000000D03*
X153000000Y-94050000D03*
X153000000Y-95950000D03*
%TD*%
%TO.C,Q3*%
X138000000Y-95000000D03*
X140000000Y-94050000D03*
X140000000Y-95950000D03*
%TD*%
%TO.C,Q2*%
X177000000Y-95000000D03*
X179000000Y-94050000D03*
X179000000Y-95950000D03*
%TD*%
%TO.C,Q1*%
X164000000Y-95000000D03*
X166000000Y-94050000D03*
X166000000Y-95950000D03*
%TD*%
D21*
%TO.C,K4*%
X152475000Y-74885000D03*
X152475000Y-90125000D03*
X160075000Y-77425000D03*
X160075000Y-90125000D03*
%TD*%
%TO.C,K3*%
X139475000Y-74860000D03*
X139475000Y-90100000D03*
X147075000Y-77400000D03*
X147075000Y-90100000D03*
%TD*%
%TO.C,K2*%
X178500000Y-74885000D03*
X178500000Y-90125000D03*
X186100000Y-77425000D03*
X186100000Y-90125000D03*
%TD*%
%TO.C,K1*%
X165475000Y-74885000D03*
X165475000Y-90125000D03*
X173075000Y-77425000D03*
X173075000Y-90125000D03*
%TD*%
D22*
%TO.C,J11*%
X179800000Y-66500000D03*
D23*
X184800000Y-66500000D03*
%TD*%
D22*
%TO.C,J10*%
X140775000Y-66500000D03*
D23*
X145775000Y-66500000D03*
%TD*%
D24*
%TO.C,J9*%
X147830000Y-95000000D03*
X145290000Y-95000000D03*
D25*
X142750000Y-95000000D03*
%TD*%
D24*
%TO.C,J4*%
X186855000Y-95000000D03*
X184315000Y-95000000D03*
D25*
X181775000Y-95000000D03*
%TD*%
D24*
%TO.C,J2*%
X173830000Y-95000000D03*
X171290000Y-95000000D03*
D25*
X168750000Y-95000000D03*
%TD*%
D24*
%TO.C,J8*%
X141500000Y-109420000D03*
X141500000Y-111960000D03*
D25*
X141500000Y-114500000D03*
%TD*%
D24*
%TO.C,J6*%
X160830000Y-95000000D03*
X158290000Y-95000000D03*
D25*
X155750000Y-95000000D03*
%TD*%
D22*
%TO.C,J5*%
X153783333Y-66500000D03*
D23*
X158783333Y-66500000D03*
%TD*%
D26*
%TO.C,FLASH1*%
X147500000Y-109500000D03*
X147500000Y-114900000D03*
%TD*%
%TO.C,R17*%
G36*
G01*
X178425000Y-114487500D02*
X178425000Y-114012500D01*
G75*
G02*
X178662500Y-113775000I237500J0D01*
G01*
X179162500Y-113775000D01*
G75*
G02*
X179400000Y-114012500I0J-237500D01*
G01*
X179400000Y-114487500D01*
G75*
G02*
X179162500Y-114725000I-237500J0D01*
G01*
X178662500Y-114725000D01*
G75*
G02*
X178425000Y-114487500I0J237500D01*
G01*
G37*
G36*
G01*
X176600000Y-114487500D02*
X176600000Y-114012500D01*
G75*
G02*
X176837500Y-113775000I237500J0D01*
G01*
X177337500Y-113775000D01*
G75*
G02*
X177575000Y-114012500I0J-237500D01*
G01*
X177575000Y-114487500D01*
G75*
G02*
X177337500Y-114725000I-237500J0D01*
G01*
X176837500Y-114725000D01*
G75*
G02*
X176600000Y-114487500I0J237500D01*
G01*
G37*
%TD*%
%TO.C,R12*%
G36*
G01*
X176762500Y-111512500D02*
X177237500Y-111512500D01*
G75*
G02*
X177475000Y-111750000I0J-237500D01*
G01*
X177475000Y-112250000D01*
G75*
G02*
X177237500Y-112487500I-237500J0D01*
G01*
X176762500Y-112487500D01*
G75*
G02*
X176525000Y-112250000I0J237500D01*
G01*
X176525000Y-111750000D01*
G75*
G02*
X176762500Y-111512500I237500J0D01*
G01*
G37*
G36*
G01*
X176762500Y-109687500D02*
X177237500Y-109687500D01*
G75*
G02*
X177475000Y-109925000I0J-237500D01*
G01*
X177475000Y-110425000D01*
G75*
G02*
X177237500Y-110662500I-237500J0D01*
G01*
X176762500Y-110662500D01*
G75*
G02*
X176525000Y-110425000I0J237500D01*
G01*
X176525000Y-109925000D01*
G75*
G02*
X176762500Y-109687500I237500J0D01*
G01*
G37*
%TD*%
%TO.C,R6*%
G36*
G01*
X146987500Y-106762500D02*
X146987500Y-107237500D01*
G75*
G02*
X146750000Y-107475000I-237500J0D01*
G01*
X146250000Y-107475000D01*
G75*
G02*
X146012500Y-107237500I0J237500D01*
G01*
X146012500Y-106762500D01*
G75*
G02*
X146250000Y-106525000I237500J0D01*
G01*
X146750000Y-106525000D01*
G75*
G02*
X146987500Y-106762500I0J-237500D01*
G01*
G37*
G36*
G01*
X148812500Y-106762500D02*
X148812500Y-107237500D01*
G75*
G02*
X148575000Y-107475000I-237500J0D01*
G01*
X148075000Y-107475000D01*
G75*
G02*
X147837500Y-107237500I0J237500D01*
G01*
X147837500Y-106762500D01*
G75*
G02*
X148075000Y-106525000I237500J0D01*
G01*
X148575000Y-106525000D01*
G75*
G02*
X148812500Y-106762500I0J-237500D01*
G01*
G37*
%TD*%
%TO.C,R5*%
G36*
G01*
X177575000Y-115762500D02*
X177575000Y-116237500D01*
G75*
G02*
X177337500Y-116475000I-237500J0D01*
G01*
X176837500Y-116475000D01*
G75*
G02*
X176600000Y-116237500I0J237500D01*
G01*
X176600000Y-115762500D01*
G75*
G02*
X176837500Y-115525000I237500J0D01*
G01*
X177337500Y-115525000D01*
G75*
G02*
X177575000Y-115762500I0J-237500D01*
G01*
G37*
G36*
G01*
X179400000Y-115762500D02*
X179400000Y-116237500D01*
G75*
G02*
X179162500Y-116475000I-237500J0D01*
G01*
X178662500Y-116475000D01*
G75*
G02*
X178425000Y-116237500I0J237500D01*
G01*
X178425000Y-115762500D01*
G75*
G02*
X178662500Y-115525000I237500J0D01*
G01*
X179162500Y-115525000D01*
G75*
G02*
X179400000Y-115762500I0J-237500D01*
G01*
G37*
%TD*%
%TO.C,C1*%
G36*
G01*
X177237500Y-100812500D02*
X176762500Y-100812500D01*
G75*
G02*
X176525000Y-100575000I0J237500D01*
G01*
X176525000Y-99975000D01*
G75*
G02*
X176762500Y-99737500I237500J0D01*
G01*
X177237500Y-99737500D01*
G75*
G02*
X177475000Y-99975000I0J-237500D01*
G01*
X177475000Y-100575000D01*
G75*
G02*
X177237500Y-100812500I-237500J0D01*
G01*
G37*
G36*
G01*
X177237500Y-102537500D02*
X176762500Y-102537500D01*
G75*
G02*
X176525000Y-102300000I0J237500D01*
G01*
X176525000Y-101700000D01*
G75*
G02*
X176762500Y-101462500I237500J0D01*
G01*
X177237500Y-101462500D01*
G75*
G02*
X177475000Y-101700000I0J-237500D01*
G01*
X177475000Y-102300000D01*
G75*
G02*
X177237500Y-102537500I-237500J0D01*
G01*
G37*
%TD*%
D27*
%TO.C,RESET1*%
X179500000Y-111000000D03*
X184900000Y-111000000D03*
%TD*%
D24*
%TO.C,J7*%
X153000000Y-106960000D03*
X153000000Y-109500000D03*
X153000000Y-112040000D03*
D25*
X153000000Y-114580000D03*
%TD*%
D28*
%TO.C,U1*%
X174100000Y-116000000D03*
X174100000Y-114000000D03*
X174100000Y-112000000D03*
X174100000Y-110000000D03*
X174100000Y-108000000D03*
X174100000Y-106000000D03*
X174100000Y-104000000D03*
X174100000Y-102000000D03*
D29*
X171500000Y-100500000D03*
X169500000Y-100500000D03*
X167500000Y-100500000D03*
X165500000Y-100500000D03*
X163500000Y-100500000D03*
X161500000Y-100500000D03*
D28*
X158900000Y-102000000D03*
X158900000Y-104000000D03*
X158900000Y-106000000D03*
X158900000Y-108000000D03*
X158900000Y-110000000D03*
X158900000Y-112000000D03*
X158900000Y-114000000D03*
X158900000Y-116000000D03*
%TD*%
D22*
%TO.C,J1*%
X166791666Y-66500000D03*
D23*
X171791666Y-66500000D03*
%TD*%
D30*
%TO.C,H2*%
X184000000Y-104000000D03*
%TD*%
%TO.C,H1*%
X132500000Y-100000000D03*
%TD*%
M02*
